<svg xmlns="http://www.w3.org/2000/svg" width="800" height="440" viewBox="0 0 800 440">
  <style>
    .box { fill: #ffffff; stroke: #111111; stroke-width: 2; }
    .box-dash { fill: #ffffff; stroke: #111111; stroke-width: 2; stroke-dasharray: 6 4; }
    .line { stroke: #111111; stroke-width: 2; fill: none; }
    .line-dash { stroke: #111111; stroke-width: 2; stroke-dasharray: 6 4; fill: none; }
    .label { font-family: "Arial", sans-serif; font-size: 14px; fill: #111111; }
    .small { font-size: 12px; }
  </style>

  <rect class="box" x="20" y="20" width="760" height="400" rx="6" />
  <text class="label" x="36" y="44">Project</text>

  <rect class="box" x="60" y="70" width="340" height="300" rx="6" />
  <text class="label" x="76" y="94">Region: US-East</text>

  <rect class="box" x="420" y="90" width="320" height="260" rx="6" />
  <text class="label" x="436" y="114">Region: US-West (replica override)</text>

  <rect class="box" x="90" y="110" width="280" height="240" rx="6" />
  <text class="label" x="106" y="134">DB: Billing</text>

  <rect class="box" x="120" y="150" width="220" height="70" rx="6" />
  <text class="label" x="136" y="178">INVOICE</text>

  <rect class="box" x="120" y="240" width="220" height="70" rx="6" />
  <text class="label" x="136" y="268">PAYMENT</text>

  <rect class="box" x="450" y="150" width="260" height="180" rx="6" />
  <text class="label" x="466" y="174">DB: Billing</text>

  <rect class="box" x="480" y="190" width="200" height="70" rx="6" />
  <text class="label" x="496" y="218">INVOICE</text>

  <path class="line-dash" d="M340 185 L400 185 L400 225 L450 225" />
  <text class="label small" x="310" y="205">dep</text>
</svg>
