<?xml version="1.0" encoding="UTF-8"?>
<svg xmlns="http://www.w3.org/2000/svg" viewBox="0 0 256 256" width="256" height="256">
  <!-- Background -->
  <rect x="8" y="8" width="240" height="240" rx="32" fill="#2c3e50"/>
  
  <!-- Database cylinder body -->
  <ellipse cx="128" cy="64" rx="80" ry="32" fill="#3498db"/>
  <rect x="48" y="64" width="160" height="120" fill="#3498db"/>
  <ellipse cx="128" cy="184" rx="80" ry="32" fill="#2980b9"/>
  
  <!-- Database highlights -->
  <ellipse cx="128" cy="64" rx="64" ry="24" fill="#5dade2"/>
  
  <!-- Connection lines -->
  <path d="M48 100 L24 100 L24 200 L48 200" stroke="#e74c3c" stroke-width="12" fill="none"/>
  <path d="M208 100 L232 100 L232 200 L208 200" stroke="#e74c3c" stroke-width="12" fill="none"/>
  
  <!-- Nodes -->
  <circle cx="24" cy="100" r="16" fill="#e74c3c"/>
  <circle cx="24" cy="200" r="16" fill="#e74c3c"/>
  <circle cx="232" cy="100" r="16" fill="#e74c3c"/>
  <circle cx="232" cy="200" r="16" fill="#e74c3c"/>
  
  <!-- Center gear/icon -->
  <circle cx="128" cy="130" r="40" fill="#ecf0f1"/>
  <circle cx="128" cy="130" r="28" fill="#34495e"/>
  <circle cx="128" cy="130" r="16" fill="#ecf0f1"/>
</svg>
