<svg xmlns="http://www.w3.org/2000/svg" width="640" height="360" viewBox="0 0 640 360">

<rect x="30" y="30" width="580" height="300" rx="14" ry="14" fill="#fff" stroke="#111" stroke-width="2"/>
<text x="50" y="65" font-family="sans-serif" font-size="18">ORGANIZATION</text>
<text x="50" y="90" font-family="sans-serif" font-size="14">* NAME</text>
<rect x="60" y="110" width="520" height="85" rx="10" ry="10" fill="#fff" stroke="#111" stroke-width="2"/>
<text x="80" y="135" font-family="sans-serif" font-size="14">LEGAL ORGANIZATION</text>
<text x="80" y="155" font-family="sans-serif" font-size="12">o FEDERAL TAX ID NUM</text>
<rect x="90" y="165" width="180" height="30" rx="10" ry="10" fill="#fff" stroke="#111"/>
<text x="110" y="185" font-family="sans-serif" font-size="12">CORPORATION</text>
<rect x="300" y="165" width="220" height="30" rx="10" ry="10" fill="#fff" stroke="#111"/>
<text x="315" y="185" font-family="sans-serif" font-size="12">GOVERNMENT AGENCY</text>
<rect x="60" y="210" width="520" height="90" rx="10" ry="10" fill="#fff" stroke="#111" stroke-width="2"/>
<text x="80" y="235" font-family="sans-serif" font-size="14">INFORMAL ORGANIZATION</text>
<rect x="90" y="245" width="150" height="30" rx="10" ry="10" fill="#fff" stroke="#111"/>
<text x="120" y="265" font-family="sans-serif" font-size="12">TEAM</text>
<rect x="260" y="245" width="150" height="30" rx="10" ry="10" fill="#fff" stroke="#111"/>
<text x="300" y="265" font-family="sans-serif" font-size="12">FAMILY</text>
<rect x="430" y="245" width="150" height="30" rx="10" ry="10" fill="#fff" stroke="#111"/>
<text x="438" y="265" font-family="sans-serif" font-size="10">OTHER INFORMAL</text>
<text x="438" y="278" font-family="sans-serif" font-size="10">ORGANIZATION</text>

</svg>
