<?xml version="1.0" encoding="utf-8" ?><svg xmlns="http://www.w3.org/2000/svg" xmlns:xlink="http://www.w3.org/1999/xlink" width="1024" height="1024" viewBox="0 0 1024 1024"><path fill="#212D62" d="M496.772 48.7862C562.961 46.4282 628.821 59.1301 689.386 85.9339C699.04 90.1549 708.097 94.2208 717.506 99.0195C826.303 154.51 905.622 254.46 940.157 372.26C947.414 396.536 952.66 421.369 955.842 446.506C962.747 503.341 957.137 566.068 941.136 620.934C938.821 628.872 934.643 638.357 934.305 646.492C933.952 654.965 934.393 663.826 934.381 672.346C934.166 692.478 934.179 712.612 934.423 732.744C934.486 745.188 935.688 760.152 932.459 772.668C928.67 787.351 909.992 788.785 897.693 793.727C887.394 797.864 876.923 801.533 866.235 795.144C856.507 810.867 837.105 833.553 824.276 846.799C797.881 873.923 767.735 897.124 734.758 915.696C669.199 953.674 594.888 973.946 519.125 974.522C440.295 975.353 365.794 957.665 296.996 918.498C288.836 913.753 280.857 908.703 273.076 903.359C267.459 899.456 261.967 895.252 256.142 891.701C244.058 891.224 232.907 892.049 219.774 891.104C173.585 887.781 121.475 875.317 85.3314 844.874C69.9124 831.887 53.8311 808.999 53.5433 788.688C53.3158 772.63 53.512 755.242 53.5237 738.973L53.6018 635.517L53.5103 480.36L53.482 436.082C53.4086 421.23 51.9954 400.635 56.1034 386.86C61.0614 370.235 72.5267 354.779 85.7045 343.704C87.9079 341.537 95.8816 337.025 96.8946 334.453C118.25 280.239 145.173 236.574 184.317 193.067C245.147 126.589 324.729 80.149 412.531 59.8931C440.235 53.7455 468.422 50.0291 496.772 48.7862ZM421.922 366.297C439.51 392.211 437.702 404.842 437.558 433.832C437.47 447.873 437.458 461.915 437.523 475.956C467.446 492.845 497.733 508.775 527.69 525.46L868.768 717.817L869.198 717.456C869.66 711.377 869.366 704.017 869.313 697.804L869.24 670.119L869.119 573.162L869.035 483.288C869.006 469.403 869.2 455.15 868.827 441.307C868.715 437.128 867.992 431.376 864.779 428.845C858.226 423.684 846.979 418.5 839.607 414.322L766.009 372.871L421.984 179.878L422.093 289.449C421.985 314.228 421.44 341.666 421.922 366.297ZM143.702 312.725C149.392 312.163 155.183 309.975 160.777 308.664C170.52 306.379 180.3 303.986 190.196 302.434C245.295 294.77 307.143 297.333 358.749 319.946C366.302 323.256 373.685 327.041 380.822 331.183C384.821 333.504 389.908 337.338 393.865 339.152L393.931 221.228L393.847 183.931C393.852 164.519 390.69 150.743 412.298 142.348C426.73 136.74 442.239 122.573 458.87 131.346C482.508 144.373 507.389 157.182 530.704 170.799L795.39 318.372L866.858 358.318C878.04 364.602 895.061 374.871 906.259 380.119C877.761 277.904 810.299 190.948 718.373 137.942C670.66 110.83 618.886 92.774 564.509 85.86C544.286 83.2887 524.519 81.061 504.064 82.2121C493.266 82.6851 479.359 83.3402 468.593 84.6228C369.141 95.8613 277.047 142.493 209.126 216.003C187.195 240.249 168.242 267.029 152.67 295.775C150.23 300.238 145.449 308.451 143.702 312.725ZM309.773 885.274C317.932 892.592 331.139 899.09 341.195 903.734C412.943 936.868 492.913 948.387 571.176 937.271C638.77 928 702.891 901.67 757.493 860.761C774.196 848.073 792.614 832.439 806.39 816.759C815.552 806.331 828.915 790.295 836.489 778.667C832.256 776.358 827.846 774.382 823.719 772.039C800.571 758.727 776.552 745.687 753.206 732.465C744.118 727.257 734.982 722.131 725.8 717.089C720.88 714.341 715.597 711.033 710.472 708.822C709.751 712.967 709.294 717.506 708.577 721.404C723.729 731.147 741.466 740.275 756.946 749.67C763.473 753.631 774.471 758.95 779.802 763.61C780.119 771.592 779.784 781.522 779.412 789.585C778.486 790.594 777.29 791.729 776.09 792.384C749.425 806.925 722.754 821.474 696.11 836.061C692.948 837.792 688.149 840.225 684.641 840.924C680.432 839.391 676.518 837.198 672.584 835.077C655.974 826.122 639.813 816.372 623.399 807.068C592.949 789.959 562.623 772.631 532.424 755.083C529.56 753.408 503.096 738.826 502.811 737.095C501.738 730.595 501.823 715.184 502.669 708.372C508.401 704.096 565.077 672.865 571.244 671.897C580.888 670.382 591.948 673.606 601.725 673.822C603.318 666.501 604.891 656.281 606.836 649.57C584.908 636.309 560.941 624.003 538.658 611.242C520.859 601.049 503.299 590.795 485.399 580.729L452.991 562.711C449.231 560.58 440.552 555.815 437.369 553.312C438.071 599.712 436.939 646.785 437.291 693.278C437.54 715.709 437.638 738.142 437.587 760.574C437.536 792.215 439.476 811.316 415.108 835.91C386.295 864.989 348.928 877.434 309.773 885.274ZM326.315 320.367C302.256 312.512 264.992 308.201 239.729 308.752C196.873 309.367 152.018 318.406 113.886 338.449C84.5219 353.884 58.1087 382.3 65.2533 417.784C68.7118 434.961 76.6778 445.371 88.465 457.582C101.235 450.923 114.713 443.038 127.202 435.755L255.136 361.819L302.636 333.991C309.651 329.912 319.942 324.787 326.315 320.367ZM726.797 786.608C734.752 782.48 742.676 778.292 750.568 774.044C754.611 771.881 760.916 768.746 764.578 766.234C745.66 754.523 725.71 744.783 706.671 732.884L706.525 733.561C705.523 738.328 704.938 755.243 701.634 757.443C697.809 759.989 679.251 767.044 675.183 766.371C674.644 766.282 599.234 724.792 595.058 721.694C592.01 716.776 598.888 692.216 599.754 684.272C592.587 683.746 579.04 682.339 572.325 682.483C565.027 685.744 558.655 689.622 551.65 693.202C539.423 699.452 528.356 705.505 516.665 712.695C532.39 723.078 552.094 733.03 568.677 742.493L685.556 809.023C689.454 806.358 696.645 802.956 701.046 800.629C709.666 796.024 718.251 791.35 726.797 786.608ZM679.655 826.285C679.867 823.584 680.06 821.316 680.026 818.588C671.37 814.031 662.523 808.396 653.876 803.558C617.292 783.092 581.072 761.477 544.414 741.138C537.088 737.008 529.808 732.796 522.575 728.505C520.217 727.117 514.935 723.759 512.666 722.656C512.229 732.661 513.547 731.556 521.8 736.483C527.703 740.008 533.819 743.501 539.761 746.973C576.776 768.494 614.01 789.635 651.459 810.392C655.581 812.699 676.894 826.125 679.655 826.285ZM667.313 750.518C668.759 746.338 669.712 738.214 670.619 733.574C673.347 719.62 675.038 704.186 678.794 690.537C658.415 678.599 637.158 667.073 616.597 655.324C612.221 670.696 607.07 698.666 604.414 715.11C625.513 726.676 646.481 738.48 667.313 750.518ZM687.375 752.1C689.36 751.21 691.016 750.487 692.928 749.422C696.338 734.712 698.063 718.85 700.611 703.935C696.82 701.379 692.141 698.068 688.108 696.12C683.547 713.088 680.291 737.765 676.745 755.573C680.759 754.448 683.495 753.588 687.375 752.1ZM337.114 323.462C321.758 332.079 306.992 341.177 291.806 349.993L177.019 416.499L121.006 448.472C113.882 452.548 101.2 459.179 95.2005 463.509C99.2987 467.046 104.883 470.464 109.516 473.434C128.095 485.343 149.52 493.608 170.856 499.063C177.541 500.772 184.455 501.795 191.207 503.264C236.856 510.832 279.977 509.665 324.71 497.316C348.945 490.626 370.776 482.273 391.589 467.741C423.957 445.14 439.688 407.491 413.517 373.502C393.837 348.553 366.697 333.327 337.114 323.462ZM228.067 693.943C206.716 691.682 190.169 690.271 168.863 684.186C134.419 674.348 101.04 659.51 78.0248 630.727C75.6946 627.813 72.5888 622.058 70.6876 618.691L70.0432 619.311C78.5202 641.473 111.327 662.888 132.547 672.285C141.244 676.077 150.127 679.424 159.164 682.314C164.001 683.881 179.691 687.108 181.566 689.377L181.657 690.283L182.321 690.819C175.152 691.87 145.569 681.585 138.345 678.445C118.768 669.936 98.0324 658.332 83.7378 642.19C81.3291 639.504 78.66 637.152 76.2781 634.183C74.3403 631.768 70.6234 623.455 68.2684 623.003C67.2581 621.634 67.2544 621.102 65.9478 620.664C64.3438 623.235 64.6021 667.777 65.8836 672.224C75.6066 705.966 109.56 727.096 140.036 740.002C198.685 764.837 265.997 764.956 326.955 748.704C359.018 739.881 400.975 717.637 417.52 687.98C426.866 671.226 426.248 661.391 426.327 643.241L426.397 617.94C413.637 648.203 378.75 668.478 349.444 680.505C325.72 690.242 300.043 694.852 274.695 697.705C275.096 697.114 275.397 696.58 275.758 695.965C275.201 694.49 275.171 694.416 274.987 692.868C261.572 693.96 248.511 694.57 235.054 694.079C232.869 693.999 230.235 693.867 228.067 693.943ZM768.456 776.496C742.572 789.205 716.88 804.114 691.472 817.805C688.813 819.237 689.324 824.099 690.155 826.521C697.675 823.22 706.056 818.371 713.307 814.242C731.433 803.921 751.505 794.586 769.098 783.638C769.12 781.657 769.308 778.586 768.803 776.783L768.456 776.496ZM444.367 139.583C439.549 141.083 429.159 145.843 425.044 148.614C438.705 154.541 450.758 162.142 463.642 169.574C477.432 177.461 491.294 185.222 505.226 192.856L690.014 296.148L826.972 372.991C843.911 382.68 861.333 391.648 877.937 401.927C880.117 403.276 883.357 406.416 885.057 408.352C892.24 416.534 897.736 428.433 897.892 439.46C898.125 455.925 897.987 472.455 897.979 488.933L897.975 585.935L897.988 714.498L897.931 748.604C897.924 758.519 898.8 773.094 896.018 782.055C897.301 781.745 900.522 781.065 901.62 780.681C908.262 778.464 920.036 775.935 922.386 769.63C923.201 767.446 923.87 760.137 923.888 757.527C924.035 736.839 923.986 716.074 923.994 695.388L923.903 573.593L923.808 486.027C923.85 469.495 924.448 449.013 923.721 432.691C923.417 425.791 921.835 419.006 919.056 412.682C909.536 390.975 886.382 381.78 866.679 370.934L818.832 344.193L650.59 250.332L511.071 172.777L474.612 152.538C466.481 148.02 453.428 139.46 444.367 139.583ZM409.504 156.53C405.81 159.622 405.102 162.353 404.784 167.07C404.32 173.945 404.454 181.066 404.441 187.975L404.381 222.116C404.233 263.597 404.631 305.881 403.977 347.242C406.864 350.479 408.088 351.698 411.704 354.265C412.23 338.004 411.991 320.675 411.997 304.33L411.96 225.846C411.939 217.217 410.992 173.836 412.967 167.79C416.473 165.601 420.124 166.916 423.504 168.803C430.649 172.791 437.674 177.044 444.764 181.133C460.743 190.344 476.769 199.473 492.843 208.517L738.291 345.406C767.222 361.459 796.061 377.678 824.806 394.062C837.694 401.339 850.632 408.517 863.509 415.836C874.716 422.206 879.268 430.737 879.411 443.499C879.62 462.029 879.48 480.581 879.471 499.117L879.543 608.634L879.679 692.286C879.683 704.668 880.254 717.76 878.847 729.988C878.371 734.129 872.767 731.907 870.542 730.734C852.824 721.393 835.559 711.31 818.14 701.443L741.603 658.613L521.228 534.543C493.76 518.857 464.166 503.831 437.122 487.617C436.94 505.445 437.471 523.358 437.468 541.176C441.575 544.544 460.966 554.922 466.685 558.175L543.497 601.307L756.157 721.882L829.247 762.778C843.573 770.698 858.043 778.446 872.55 785.981C880.3 790.006 885.886 783.203 886.689 775.991C887.964 764.531 887.238 752.624 887.235 741.089L887.375 690.621L887.499 537.669L887.494 469.991C887.556 449.069 891.599 423.861 871.261 410.979C863.617 406.137 855.376 401.871 847.463 397.459L809.003 375.913L714.796 322.835L500.964 203.581C476.829 190.315 452.866 175.989 428.706 162.702C423.232 159.691 415.837 156.182 409.504 156.53ZM67.663 753.135C79.4784 783.452 103.888 800.266 132.652 812.861C198.572 841.727 282.961 842.199 349.836 816.15C375.025 806.338 409.233 787.677 420.146 761.983C427.354 745.014 426.603 734.186 426.499 716.25C426.468 710.915 427.039 703.658 425.89 698.592C407.223 742.628 350.515 765.952 306.219 775.04C249.652 786.645 189.202 782.834 135.712 760.285C110.83 749.789 84.547 731.838 70.1259 708.742C69.1112 707.117 67.22 701.33 65.4309 701.881C63.9649 705.01 64.3246 714.273 64.3745 717.955C64.5282 729.294 63.3402 742.386 67.663 753.135ZM65.054 445.365C64.0636 450.87 64.4282 493.759 66.0895 497.956C111.037 611.514 376.154 608.04 420.403 505.15C427.423 488.517 427.103 465.27 426.191 447.218C417.987 459.348 405.385 470.667 393.321 479.076C309.802 537.293 125.796 535.522 65.054 445.365ZM425.776 524.368C422.748 530.813 416.743 541.19 411.759 546.253C343.694 615.394 210.209 619.451 127.94 580.798C109.922 572.5 93.5974 560.936 79.7922 546.691C74.4256 541.111 70.9222 533.945 66.2514 527.424C65.9894 527.452 65.7275 527.48 65.4655 527.508C64.1824 529.581 64.2828 551.066 64.3838 555.414C64.6649 567.526 62.4869 584.62 67.6635 595.619C78.836 623.745 108.885 644.854 136.253 656.314C202.5 684.054 282.105 684.651 349.141 658.688C381.048 646.33 420.87 620.703 425.688 582.995C426.938 573.22 425.66 562.148 426.078 552.252C425.982 545.04 426.611 530.916 425.776 524.368Z"/><path fill="#101948" d="M539.924 414.319C544.46 415.767 567.209 429.563 573.163 432.988L659.633 482.748L714.598 513.374C721.811 517.338 737.671 525.509 743.983 529.941C744.928 560.408 743.603 592.139 743.787 622.702C743.799 624.725 742.855 626.024 741.551 627.432C736.796 625.645 727.533 620.184 722.765 617.541L688.536 598.578C652.582 579.066 616.801 559.237 581.198 539.091C570.82 533.283 560.268 527.737 550.107 521.55C546.409 519.299 540.769 516.454 537.703 513.6C537.164 507.037 537.342 497.14 537.317 490.345L537.228 450.671C537.212 440.149 536.984 428.409 537.31 417.822C537.363 416.098 538.602 415.302 539.924 414.319ZM543.047 508.618C550.007 513.369 561.55 519.262 569.159 523.583L620.849 552.981C629.462 557.843 637.929 563.32 646.507 568.272C657.271 574.488 668.813 580.006 679.544 586.149C699.108 597.347 717.932 608.145 737.996 618.453C737.989 590.239 737.653 561.315 738.015 533.142L607.308 459.914C585.86 447.78 564.547 436.265 543.537 423.225L543.506 478.753C543.508 486.028 543.926 501.898 543.047 508.618Z"/><path fill="#80A6D5" d="M543.537 423.225C564.547 436.265 585.86 447.78 607.308 459.914L738.015 533.142C737.653 561.315 737.989 590.239 737.996 618.453C717.932 608.145 699.108 597.347 679.544 586.149C668.813 580.006 657.271 574.488 646.507 568.272C637.929 563.32 629.462 557.843 620.849 552.981L569.159 523.583C561.55 519.262 550.007 513.369 543.047 508.618C543.926 501.898 543.508 486.028 543.506 478.753L543.537 423.225ZM553.152 503.763C577.108 516.639 600.386 531.615 624.182 544.866C630.448 548.356 636.548 552.861 642.749 556.586C644.511 551.858 643.42 525.229 643.555 517.935C637.137 513.494 628.425 508.681 621.592 504.637C608.492 496.738 595.278 489.029 581.955 481.513C576.266 478.244 558.963 467.578 553.892 466.123C552.097 470.857 553.072 496.692 553.152 503.763ZM698.734 570.801C718.997 567.775 708.169 530.527 689.779 530.049C679.002 533.02 676.811 543.173 679.644 552.978C681.673 559.775 686.324 565.485 692.57 568.847C694.714 569.978 696.381 570.465 698.734 570.801Z"/><path fill="#101948" d="M553.892 466.123C558.963 467.578 576.266 478.244 581.955 481.513C595.278 489.029 608.492 496.738 621.592 504.637C628.425 508.681 637.137 513.494 643.555 517.935C643.42 525.229 644.511 551.858 642.749 556.586C636.548 552.861 630.448 548.356 624.182 544.866C600.386 531.615 577.108 516.639 553.152 503.763C553.072 496.692 552.097 470.857 553.892 466.123ZM558.004 483.386C574.516 493.373 591.35 502.885 608.17 512.352C617.877 517.816 628.682 525.139 638.195 530.149C638.515 526.191 638.496 524.467 638.246 520.492C619.571 509.84 600.959 499.08 582.411 488.211C575.055 483.935 565.697 477.962 558.331 474.152C558.165 477.243 557.949 480.29 558.004 483.386ZM558.025 500.564C580.996 513.085 603.699 526.093 626.117 539.579C627.764 540.582 637.515 546.745 638.393 546.56C638.719 542.851 638.793 540.804 638.689 537.086C611.961 522.793 584.619 506.474 558.016 491.492L558.025 500.564Z"/><path fill="#101948" d="M687.787 524.099C713.53 522.745 727.142 570.112 701.487 577.104C696.956 576.849 694.141 576.283 690.082 574.058C682.615 569.924 677.099 562.99 674.751 554.785C671.232 542.497 673.844 528.079 687.787 524.099ZM698.734 570.801C718.997 567.775 708.169 530.527 689.779 530.049C679.002 533.02 676.811 543.173 679.644 552.978C681.673 559.775 686.324 565.485 692.57 568.847C694.714 569.978 696.381 570.465 698.734 570.801Z"/><path fill="#101948" d="M539.139 309.371C542.366 310.27 565.571 323.508 570.625 326.253L685.466 390.13L727.2 413.12C730.92 415.187 740.755 420.202 743.39 422.516L743.498 484.356C743.475 493.729 743.537 504.362 742.815 513.729C742.719 514.973 741.686 516.115 740.849 517.023C737.115 517.103 727.595 511.31 723.737 509.25C713.301 503.717 702.955 498.015 692.702 492.147C677.29 483.39 660.817 475.076 645.754 465.957C620.699 450.789 595.707 435.812 570.438 420.995C564.967 417.745 559.435 414.597 553.846 411.554C549.85 409.391 541.856 405.463 538.715 402.832C537.617 400.604 537.228 396.67 537.238 394.123C537.348 366.905 537.092 339.647 537.502 312.44C537.522 311.145 538.302 310.255 539.139 309.371ZM543.436 397.49C550.745 402.211 558.646 405.931 566.024 410.44C587.024 423.273 608.787 434.878 629.338 448.408C632.66 450.595 636.08 452.719 639.482 454.782C664.272 469.723 689.496 483.933 715.12 497.394C720.564 500.233 732.537 507.524 737.329 509.388L737.326 425.388C717.972 415.509 700.379 405.131 681.411 394.632C659.281 382.647 637.26 370.461 615.35 358.077C600.274 349.384 585.098 340.865 569.825 332.522C563.225 328.833 549.927 320.934 543.5 318.086L543.436 397.49Z"/><path fill="#80A6D5" d="M543.5 318.086C549.927 320.934 563.225 328.833 569.825 332.522C585.098 340.865 600.274 349.384 615.35 358.077C637.26 370.461 659.281 382.647 681.411 394.632C700.379 405.131 717.972 415.509 737.326 425.388L737.329 509.388C732.537 507.524 720.564 500.233 715.12 497.394C689.496 483.933 664.272 469.723 639.482 454.782C636.08 452.719 632.66 450.595 629.338 448.408C608.787 434.878 587.024 423.273 566.024 410.44C558.646 405.931 550.745 402.211 543.436 397.49L543.5 318.086ZM642.069 444.048C644.532 438.852 643.448 413.961 643.405 406.553C638.653 403.007 628.56 397.69 622.947 394.54L586.65 374.055C580.686 370.688 574.757 367.258 568.865 363.766C565.337 361.671 557.891 356.863 554.407 355.737C552.229 359.264 552.914 366.595 552.933 370.901L553.056 393.136C562.133 399.145 576.605 406.636 586.451 411.989C597.715 418.222 608.92 424.563 620.063 431.01C626.52 434.677 636.304 439.929 642.069 444.048ZM700.609 461.416C718.014 453.362 706.387 419.086 686.126 421.089C666.917 430.278 681.791 462.271 700.609 461.416Z"/><path fill="#101948" d="M554.407 355.737C557.891 356.863 565.337 361.671 568.865 363.766C574.757 367.258 580.686 370.688 586.65 374.055L622.947 394.54C628.56 397.69 638.653 403.007 643.405 406.553C643.448 413.961 644.532 438.852 642.069 444.048C636.304 439.929 626.52 434.677 620.063 431.01C608.92 424.563 597.715 418.222 586.451 411.989C576.605 406.636 562.133 399.145 553.056 393.136L552.933 370.901C552.914 366.595 552.229 359.264 554.407 355.737ZM558.017 373.495C566.181 378.117 634.898 417.37 637.583 417.342C638.058 414.061 637.993 412.43 637.938 409.124C619.045 398.983 600.274 387.889 581.474 377.522C573.622 373.193 565.995 368.376 558.026 364.215L558.017 373.495ZM558.111 390.154L607.503 417.607C617.257 422.997 628.532 429.042 637.983 435C638.289 431.235 638.335 429.532 638.118 425.77C629.193 421.554 615.256 413.128 606.163 407.936C592.333 400.039 571.199 389.282 558.236 380.358C558.07 383.905 557.975 386.61 558.111 390.154Z"/><path fill="#101948" d="M686.808 414.663C712.299 414.497 727.171 459.514 700.731 467.603C672.965 467.48 659.157 420.175 686.808 414.663ZM700.609 461.416C718.014 453.362 706.387 419.086 686.126 421.089C666.917 430.278 681.791 462.271 700.609 461.416Z"/><path fill="#101948" d="M638.778 622.986C651.291 622.895 660.756 643.237 650.025 650.004C636.674 649.964 628.74 629.32 638.778 622.986ZM647.124 643.584C648.432 641.156 648.853 639.25 648.071 636.465C647.24 633.52 645.198 631.066 642.453 629.714C642.238 629.619 642.022 629.524 641.807 629.43C638.012 635.364 641.238 640.863 647.124 643.584Z"/><path fill="#212D62" d="M142.872 347.213C153.366 346.834 163.24 347.99 172.038 353.72C186.817 363.495 182.194 378.949 167.181 385.201C161.306 387.648 157.495 388.368 151.125 389.319C141.777 390.498 127.437 387.573 120.085 381.522C105.749 369.723 115.155 354.489 129.846 349.742C134.959 348.089 137.387 347.617 142.872 347.213Z"/><path fill="#80A6D5" d="M142.36 352.696C173.678 349.722 191.649 376.916 153.108 383.463C143.274 383.814 134.974 383.483 126.164 378.381C120.577 375.145 115.852 368.368 120.826 362.359C125.889 356.245 134.661 353.556 142.36 352.696Z"/><path fill="#E0695C" d="M64.9909 771.793C67.4222 773.985 72.2419 783.222 76.1325 787.342C115.399 828.924 179.008 843.689 234.21 845.905C293.293 848.277 357.723 833.498 405.089 796.994C410.314 792.911 415.267 787.884 419.418 782.734C421.122 780.618 423.637 776.243 425.187 774.83L425.86 775.21L426.197 774.143C426.77 785.286 427.504 794.561 423.801 805.139C419.365 816.13 410.192 827.542 401.084 835.072C353.177 874.681 274.97 885.335 215.036 880.378C169.861 876.642 110.523 860.593 80.3047 825.07C65.5473 807.722 63.0819 793.571 64.9909 771.793Z"/><path fill="#E0695C" d="M425.286 506.861C426.007 510.892 424.298 515.691 422.933 519.44C413.104 546.437 377.966 570.047 351.369 580.752C288.332 606.125 206.123 606.924 142.88 581.55C112.351 569.301 81.0288 550.461 67.9425 519.336C66.7816 516.123 65.526 513.407 65.6575 509.996C67.2796 509.487 71.7396 519.207 72.9183 520.865C86.001 539.265 106.174 554.072 126.954 563.505C191.897 592.986 272.815 596.212 340.214 573.304C366.409 564.4 394.762 547.966 412.965 527.235C417.991 521.225 421.935 513.835 425.286 506.861Z"/><path fill="#E0695C" d="M425.542 600.487C425.493 615.616 415.599 630.417 405.149 640.613C379.368 665.766 340.116 681.104 305.297 688.07C300.357 689.095 295.388 689.975 290.396 690.71C287.938 691.053 276.164 692.431 274.987 692.868C261.572 693.96 248.511 694.57 235.054 694.079C232.869 693.999 230.235 693.867 228.067 693.943C206.716 691.682 190.169 690.271 168.863 684.186C134.419 674.348 101.04 659.51 78.0248 630.727C75.6946 627.813 72.5888 622.058 70.6876 618.691C67.7053 611.396 66.5355 608.736 65.0104 600.969C68.5973 606.901 73.0679 615.19 77.3278 620.347C101.753 649.922 139.795 666.268 176.479 674.788C242.565 690.138 322.618 683.599 381.564 648.174C398.67 637.894 419.128 619.741 425.542 600.487Z"/><path fill="#E0695C" d="M425.806 681.976L425.94 682.091C426.699 685.095 422.649 694.886 421.462 697.826C410.627 724.67 376.724 745.975 350.578 756.612C281.834 783.949 205.136 783.375 136.81 755.012C110.166 743.735 79.5155 722.628 68.3103 695.078C67.159 691.446 66.3303 687.419 65.4805 683.679C68.7208 688.059 71.392 694.391 75.4696 699.995C88.9994 718.588 110.099 732.109 130.912 741.656C196.614 771.228 277.741 771.881 345.213 747.86C378.424 736.037 410.695 714.536 425.806 681.976Z"/><path fill="#101948" fill-opacity="0.96078432" d="M70.6876 618.691C72.5888 622.058 75.6946 627.813 78.0248 630.727C101.04 659.51 134.419 674.348 168.863 684.186C190.169 690.271 206.716 691.682 228.067 693.943C224.807 694.154 223.389 693.976 220.155 693.64C217.733 695.042 214.961 695.756 214.21 697.547C163.855 694.162 93.4398 669.792 68.2684 623.003C70.6234 623.455 74.3403 631.768 76.2781 634.183C78.66 637.152 81.3291 639.504 83.7378 642.19C98.0324 658.332 118.768 669.936 138.345 678.445C145.569 681.585 175.152 691.87 182.321 690.819L181.657 690.283L181.566 689.377C179.691 687.108 164.001 683.881 159.164 682.314C150.127 679.424 141.244 676.077 132.547 672.285C111.327 662.888 78.5202 641.473 70.0432 619.311L70.6876 618.691Z"/><defs><linearGradient id="gradient_0" gradientUnits="userSpaceOnUse" x1="245.04227" y1="698.63568" x2="245.48407" y2="693.56189"><stop offset="0" stop-color="#1B2051" stop-opacity="0.7019608"/><stop offset="1" stop-color="#1C1855" stop-opacity="0.81960785"/></linearGradient></defs><path fill="url(#gradient_0)" d="M228.067 693.943C230.235 693.867 232.869 693.999 235.054 694.079C248.511 694.57 261.572 693.96 274.987 692.868C275.171 694.416 275.201 694.49 275.758 695.965C275.397 696.58 275.096 697.114 274.695 697.705C269.523 698.223 260.864 698.887 255.666 699.098L256.906 697.868L256.783 696.782C255.677 696.208 240.424 695.686 238.914 696.637C239.879 697.894 241.772 698.518 243.294 699.197C235.916 699.204 221.258 698.668 214.21 697.547C214.961 695.756 217.733 695.042 220.155 693.64C223.389 693.976 224.807 694.154 228.067 693.943Z"/><path fill="#101948" fill-opacity="0.79607844" d="M243.294 699.197C241.772 698.518 239.879 697.894 238.914 696.637C240.424 695.686 255.677 696.208 256.783 696.782L256.906 697.868L255.666 699.098L243.294 699.197Z"/></svg>